<?xml version="1.0" encoding="iso-8859-1"?>
<!-- Generator: Adobe Illustrator 19.0.0, SVG Export Plug-In . SVG Version: 6.00 Build 0)  -->
<svg version="1.1" id="Layer_1" xmlns="http://www.w3.org/2000/svg" xmlns:xlink="http://www.w3.org/1999/xlink" x="0px" y="0px"
	 viewBox="0 0 512 512" style="enable-background:new 0 0 512 512;" xml:space="preserve">
<path style="fill:#D1F4FF;" d="M257.062,203.269c-10.919,0-19.774,8.853-19.774,19.774H39.548c0-10.921-8.852-19.774-19.774-19.774
	C8.855,203.269,0,212.123,0,223.043v79.096c0,40.98,69.52,59.322,138.418,59.322s138.418-18.342,138.418-59.322v-79.096
	C276.836,212.123,267.984,203.269,257.062,203.269z"/>
<path style="fill:#A7E5FF;" d="M257.062,203.269c-10.919,0-19.774,8.853-19.774,19.774h-98.87v138.418
	c68.898,0,138.418-18.342,138.418-59.322v-79.096C276.836,212.123,267.984,203.269,257.062,203.269z"/>
<path style="fill:#408BAF;" d="M257.062,124.173c-10.919,0-19.774,8.853-19.774,19.774H39.548c0-10.921-8.852-19.774-19.774-19.774
	C8.855,124.173,0,133.027,0,143.947v79.096c0,40.98,69.52,59.322,138.418,59.322s138.418-18.342,138.418-59.322v-79.096
	C276.836,133.027,267.984,124.173,257.062,124.173z"/>
<path style="fill:#387896;" d="M257.062,124.173c-10.919,0-19.774,8.853-19.774,19.774h-98.87v138.418
	c68.898,0,138.418-18.342,138.418-59.322v-79.096C276.836,133.027,267.984,124.173,257.062,124.173z"/>
<path style="fill:#D1F4FF;" d="M257.062,45.077c-10.919,0-19.774,8.853-19.774,19.774H39.548c0-10.921-8.852-19.774-19.774-19.774
	C8.855,45.077,0,53.931,0,64.851v79.096c0,40.98,69.52,59.322,138.418,59.322s138.418-18.342,138.418-59.322V64.851
	C276.836,53.931,267.984,45.077,257.062,45.077z"/>
<path style="fill:#408BAF;" d="M138.418,5.529C69.52,5.529,0,23.872,0,64.851s69.52,59.322,138.418,59.322
	s138.418-18.342,138.418-59.322S207.316,5.529,138.418,5.529z"/>
<path style="fill:#A7E5FF;" d="M257.062,45.077c-10.919,0-19.774,8.853-19.774,19.774h-98.87v138.418
	c68.898,0,138.418-18.342,138.418-59.322V64.851C276.836,53.931,267.984,45.077,257.062,45.077z"/>
<path style="fill:#387896;" d="M138.418,5.529v118.644c68.898,0,138.418-18.342,138.418-59.322S207.316,5.529,138.418,5.529z"/>
<path style="fill:#408BAF;" d="M340.958,443.755l-15.784-15.782c3.72-6.289,6.61-13.127,8.482-20.372h22.276
	c10.922,0,19.774-8.853,19.774-19.774s-8.852-19.774-19.774-19.774h-22.276c-1.872-7.245-4.76-14.083-8.482-20.371l15.784-15.785
	c7.721-7.722,7.721-20.242,0-27.966c-7.721-7.72-20.242-7.72-27.964,0.001l-15.784,15.784c-6.289-3.721-13.129-6.611-20.374-8.483
	v-22.276c0-10.921-8.852-19.774-19.774-19.774c-10.919,0-19.774,8.853-19.774,19.774v22.276c-7.245,1.872-14.082,4.76-20.371,8.483
	l-15.784-15.785c-7.724-7.72-20.242-7.72-27.967,0.003c-7.721,7.721-7.718,20.242,0.003,27.964l15.784,15.782
	c-3.72,6.289-6.612,13.127-8.483,20.372h-22.277c-10.919,0-19.774,8.853-19.774,19.774s8.855,19.774,19.774,19.774h22.276
	c1.872,7.245,4.763,14.084,8.483,20.372l-15.784,15.782c-7.721,7.722-7.724,20.242-0.003,27.964
	c3.863,3.864,8.925,5.794,13.983,5.794c5.062,0,10.122-1.93,13.983-5.791l15.786-15.784c6.288,3.72,13.123,6.61,20.369,8.482v22.276
	c0,10.921,8.855,19.774,19.774,19.774c10.922,0,19.774-8.853,19.774-19.774V464.42c7.245-1.872,14.084-4.76,20.371-8.483
	l15.786,15.785c3.86,3.861,8.922,5.791,13.98,5.791c5.062,0,10.122-1.93,13.983-5.792
	C348.679,463.999,348.679,451.478,340.958,443.755z M257.062,427.375c-21.805,0-39.548-17.741-39.548-39.548
	s17.743-39.548,39.548-39.548c21.808,0,39.548,17.741,39.548,39.548S278.87,427.375,257.062,427.375z"/>
<path style="fill:#387896;" d="M340.958,443.755l-15.784-15.782c3.72-6.289,6.61-13.127,8.482-20.372h22.276
	c10.922,0,19.774-8.853,19.774-19.774s-8.852-19.774-19.774-19.774h-22.276c-1.872-7.245-4.76-14.083-8.482-20.371l15.784-15.785
	c7.721-7.722,7.721-20.242,0-27.966c-7.721-7.72-20.242-7.72-27.964,0.001l-15.784,15.784c-6.289-3.721-13.129-6.611-20.374-8.483
	v-22.276c0-10.921-8.852-19.774-19.774-19.774v79.096c21.808,0,39.548,17.741,39.548,39.548c0,21.807-17.74,39.548-39.548,39.548
	v79.096c10.922,0,19.774-8.853,19.774-19.774V464.42c7.245-1.872,14.084-4.76,20.371-8.483l15.786,15.785
	c3.86,3.861,8.922,5.791,13.98,5.791c5.062,0,10.122-1.93,13.983-5.792C348.679,463.999,348.679,451.478,340.958,443.755z"/>
<path style="fill:#408BAF;" d="M492.226,238.351c10.919,0,19.774-8.852,19.774-19.774c0-10.919-8.855-19.774-19.774-19.774h-9.992
	c-0.703-1.977-1.499-3.911-2.397-5.786l7.065-7.066c7.724-7.721,7.724-20.242,0-27.964c-7.721-7.722-20.242-7.722-27.964,0
	l-7.065,7.066c-1.875-0.9-3.808-1.694-5.786-2.397v-9.992c0-10.919-8.855-19.774-19.774-19.774
	c-10.922,0-19.774,8.855-19.774,19.774v9.992c-1.977,0.703-3.911,1.498-5.786,2.397l-7.067-7.066
	c-7.721-7.722-20.242-7.722-27.964,0c-7.721,7.721-7.721,20.243,0,27.964l7.067,7.066c-0.902,1.875-1.697,3.808-2.397,5.786h-9.992
	c-10.922,0-19.774,8.855-19.774,19.774c0,10.922,8.852,19.774,19.774,19.774h9.992c0.7,1.977,1.496,3.911,2.394,5.786l-7.062,7.063
	c-7.724,7.721-7.724,20.241-0.003,27.966c3.86,3.861,8.922,5.791,13.984,5.791c5.06,0,10.119-1.93,13.98-5.791l7.065-7.065
	c1.877,0.9,3.811,1.694,5.789,2.395v9.992c0,10.922,8.852,19.774,19.774,19.774c10.919,0,19.774-8.852,19.774-19.774v-9.992
	c1.977-0.701,3.911-1.496,5.786-2.395l7.067,7.065c3.86,3.861,8.919,5.791,13.98,5.791c5.06,0,10.122-1.931,13.983-5.791
	c7.721-7.724,7.718-20.245-0.003-27.966l-7.065-7.063c0.899-1.875,1.694-3.808,2.397-5.786H492.226z M406.539,218.577
	c0-10.903,8.871-19.774,19.774-19.774c10.903,0,19.774,8.871,19.774,19.774s-8.871,19.774-19.774,19.774
	C415.408,238.351,406.539,229.48,406.539,218.577z"/>
<path style="fill:#387896;" d="M492.226,238.351c10.919,0,19.774-8.852,19.774-19.774c0-10.919-8.855-19.774-19.774-19.774h-9.992
	c-0.703-1.977-1.499-3.911-2.397-5.786l7.065-7.066c7.724-7.721,7.724-20.242,0-27.964c-7.721-7.722-20.242-7.722-27.964,0
	l-7.065,7.066c-1.875-0.9-3.808-1.694-5.786-2.397v-9.992c0-10.919-8.855-19.774-19.774-19.774v65.913
	c10.903,0,19.774,8.871,19.774,19.774s-8.871,19.774-19.774,19.774v65.913c10.919,0,19.774-8.852,19.774-19.774v-9.992
	c1.977-0.701,3.911-1.496,5.786-2.395l7.067,7.065c3.86,3.861,8.919,5.791,13.98,5.791c5.06,0,10.122-1.931,13.983-5.791
	c7.721-7.724,7.718-20.245-0.003-27.966l-7.065-7.063c0.899-1.875,1.694-3.808,2.397-5.786h9.994V238.351z"/>
<g>
</g>
<g>
</g>
<g>
</g>
<g>
</g>
<g>
</g>
<g>
</g>
<g>
</g>
<g>
</g>
<g>
</g>
<g>
</g>
<g>
</g>
<g>
</g>
<g>
</g>
<g>
</g>
<g>
</g>
</svg>
