<?xml version="1.0" encoding="iso-8859-1"?>
<!-- Generator: Adobe Illustrator 19.0.0, SVG Export Plug-In . SVG Version: 6.00 Build 0)  -->
<svg xmlns="http://www.w3.org/2000/svg" xmlns:xlink="http://www.w3.org/1999/xlink" version="1.1" id="Capa_1" x="0px" y="0px" viewBox="0 0 512 512" style="enable-background:new 0 0 512 512;" xml:space="preserve" width="512px" height="512px">
<g>
	<g>
		<path d="M339.614,136.266h-12.023c-4.15,0-7.515,3.364-7.515,7.515s3.365,7.515,7.515,7.515h12.023    c4.15,0,7.515-3.364,7.515-7.515S343.764,136.266,339.614,136.266z" fill="#FFFFFF"/>
	</g>
</g>
<g>
	<g>
		<path d="M39.788,106.773c-0.453-2.315-0.683-4.696-0.682-7.078c0-0.954,0.037-1.917,0.11-2.861    c0.319-4.138-2.776-7.751-6.914-8.071c-4.152-0.336-7.751,2.776-8.071,6.914c-0.103,1.328-0.154,2.679-0.154,4.017    c0,3.35,0.324,6.702,0.963,9.967c0.809,4.126,5.002,6.83,9.095,5.871C38.015,114.623,40.554,110.683,39.788,106.773z" fill="#FFFFFF"/>
	</g>
</g>
<g>
	<g>
		<path d="M56.304,130.72c-2.82-1.766-5.393-3.911-7.644-6.375c-2.799-3.064-7.553-3.278-10.617-0.48    c-3.064,2.799-3.278,7.553-0.48,10.617c3.169,3.469,6.79,6.49,10.764,8.977c1.239,0.776,2.618,1.147,3.981,1.147    c3.448,0,6.536-2.438,7.324-5.796C60.361,135.713,58.998,132.407,56.304,130.72z" fill="#FFFFFF"/>
	</g>
</g>
<g>
	<g>
		<path d="M87.121,136.266H75.677l-0.464-0.003c-0.039-0.001-0.078-0.001-0.117-0.001c-4.097,0-7.449,3.289-7.512,7.4    c-0.063,4.15,3.249,7.566,7.399,7.628c0.23,0.004,0.462,0.005,0.693,0.005h11.444c4.15,0,7.515-3.364,7.515-7.515    S91.271,136.266,87.121,136.266z" fill="#FFFFFF"/>
	</g>
</g>
<g>
	<g>
		<path d="M81.984,48.094H75.68c-0.009,0-0.018,0-0.027,0c-2.214,0-4.448,0.143-6.637,0.426c-4.116,0.531-7.023,4.298-6.492,8.414    c0.489,3.789,3.721,6.554,7.444,6.554c0.323,0,0.646-0.02,0.973-0.062c1.554-0.2,3.14-0.303,4.717-0.303c0.006,0,0.012,0,0.018,0    h6.308c4.15,0,7.515-3.364,7.515-7.515C89.499,51.458,86.134,48.094,81.984,48.094z" fill="#FFFFFF"/>
	</g>
</g>
<g>
	<g>
		<path d="M53.999,60.571c-2.594-3.239-7.324-3.763-10.563-1.167c-3.663,2.934-6.911,6.352-9.655,10.162    c-2.427,3.368-1.662,8.064,1.705,10.489c3.326,2.396,8.097,1.614,10.49-1.706c1.947-2.703,4.253-5.131,6.854-7.214    C56.07,68.54,56.593,63.81,53.999,60.571z" fill="#FFFFFF"/>
	</g>
</g>
<g>
	<g>
		<path d="M375.685,136.266h-12.023c-4.15,0-7.515,3.364-7.515,7.515s3.365,7.515,7.515,7.515h12.023    c4.15,0,7.515-3.364,7.515-7.515S379.835,136.266,375.685,136.266z" fill="#FFFFFF"/>
	</g>
</g>
<g>
	<g>
		<path d="M323.018,224.438h-12.023c-4.15,0-7.515,3.364-7.515,7.515c0,4.151,3.365,7.515,7.515,7.515h12.023    c4.15,0,7.515-3.364,7.515-7.515C330.533,227.802,327.168,224.438,323.018,224.438z" fill="#FFFFFF"/>
	</g>
</g>
<g>
	<g>
		<path d="M294.328,231.682c-1.218-3.966-5.424-6.194-9.391-4.975c-4.488,1.38-8.77,3.371-12.727,5.919    c-3.489,2.247-4.496,6.897-2.249,10.386c1.438,2.232,3.857,3.448,6.326,3.448c1.393,0,2.802-0.388,4.062-1.197    c2.8-1.805,5.83-3.213,9.005-4.189C293.32,239.854,295.548,235.65,294.328,231.682z" fill="#FFFFFF"/>
	</g>
</g>
<g>
	<g>
		<path d="M303.544,136.266H291.52c-4.15,0-7.515,3.364-7.515,7.515s3.365,7.515,7.515,7.515h12.023c4.15,0,7.515-3.364,7.515-7.515    S307.694,136.266,303.544,136.266z" fill="#FFFFFF"/>
	</g>
</g>
<g>
	<g>
		<path d="M154.126,48.094h-12.023c-4.15,0-7.515,3.364-7.515,7.515c0,4.151,3.365,7.515,7.515,7.515h12.023    c4.15,0,7.515-3.364,7.515-7.515C161.641,51.458,158.276,48.094,154.126,48.094z" fill="#FFFFFF"/>
	</g>
</g>
<g>
	<g>
		<path d="M118.056,48.094h-12.023c-4.15,0-7.515,3.364-7.515,7.515c0,4.151,3.365,7.515,7.515,7.515h12.023    c4.15,0,7.515-3.364,7.515-7.515C125.57,51.458,122.206,48.094,118.056,48.094z" fill="#FFFFFF"/>
	</g>
</g>
<g>
	<g>
		<path d="M123.192,136.266h-12.023c-4.15,0-7.515,3.364-7.515,7.515s3.365,7.515,7.515,7.515h12.023    c4.15,0,7.515-3.364,7.515-7.515S127.342,136.266,123.192,136.266z" fill="#FFFFFF"/>
	</g>
</g>
<g>
	<g>
		<path d="M263.797,249.936c-3.726-1.825-8.228-0.282-10.053,3.446c-2.067,4.225-3.545,8.712-4.389,13.338    c-0.745,4.083,1.96,7.997,6.043,8.743c4.03,0.734,8.007-2.013,8.742-6.042c0.597-3.271,1.641-6.445,3.103-9.431    C269.068,256.262,267.525,251.761,263.797,249.936z" fill="#FFFFFF"/>
	</g>
</g>
<g>
	<g>
		<path d="M267.473,136.266H255.45c-4.15,0-7.515,3.364-7.515,7.515s3.365,7.515,7.515,7.515h12.024c4.15,0,7.515-3.364,7.515-7.515    S271.623,136.266,267.473,136.266z" fill="#FFFFFF"/>
	</g>
</g>
<g>
	<g>
		<path d="M395.159,224.438h-12.023c-4.15,0-7.515,3.364-7.515,7.515c0,4.151,3.365,7.515,7.515,7.515h12.023    c4.15,0,7.515-3.364,7.515-7.515C402.673,227.802,399.309,224.438,395.159,224.438z" fill="#FFFFFF"/>
	</g>
</g>
<g>
	<g>
		<path d="M449.618,137.982c-4.298-1.138-8.747-1.715-13.224-1.715c-0.004,0-0.009,0-0.013,0h-0.579    c-4.15,0-7.515,3.364-7.515,7.515s3.365,7.515,7.515,7.515h0.581c0.003,0,0.006,0,0.009,0c3.18,0,6.336,0.409,9.38,1.214    c3.958,1.052,8.14-1.385,9.187-5.34C456.023,143.157,453.631,139.044,449.618,137.982z" fill="#FFFFFF"/>
	</g>
</g>
<g>
	<g>
		<path d="M481.832,163.418c-2.226-4.13-5.007-7.941-8.266-11.327c-2.879-2.99-7.636-3.081-10.625-0.202    c-2.99,2.878-3.081,7.635-0.202,10.625c2.311,2.403,4.284,5.106,5.862,8.034c2.073,3.846,7.138,5.104,10.78,2.69    C482.573,171.122,483.647,166.785,481.832,163.418z" fill="#FFFFFF"/>
	</g>
</g>
<g>
	<g>
		<path d="M480.793,182.646c-4.128-0.205-7.677,2.977-7.888,7.121c-0.17,3.335-0.793,6.62-1.849,9.763    c-1.254,3.731,0.681,7.908,4.334,9.37c3.957,1.583,8.557-0.55,9.912-4.584c1.493-4.442,2.371-9.079,2.611-13.783    C488.126,186.389,484.938,182.858,480.793,182.646z" fill="#FFFFFF"/>
	</g>
</g>
<g>
	<g>
		<path d="M470.56,216.703c-2.679-3.169-7.422-3.566-10.591-0.888c-2.548,2.153-5.371,3.946-8.393,5.328    c-3.774,1.726-5.435,6.185-3.708,9.958c1.702,3.722,6.232,5.415,9.959,3.708c4.266-1.951,8.251-4.481,11.844-7.517    C472.842,224.614,473.239,219.873,470.56,216.703z" fill="#FFFFFF"/>
	</g>
</g>
<g>
	<g>
		<path d="M359.088,224.438h-12.023c-4.15,0-7.515,3.364-7.515,7.515c0,4.151,3.365,7.515,7.515,7.515h12.023    c4.15,0,7.515-3.364,7.515-7.515C366.603,227.802,363.238,224.438,359.088,224.438z" fill="#FFFFFF"/>
	</g>
</g>
<g>
	<g>
		<path d="M159.262,136.266h-12.023c-4.15,0-7.515,3.364-7.515,7.515s3.365,7.515,7.515,7.515h12.023    c4.15,0,7.515-3.364,7.515-7.515S163.412,136.266,159.262,136.266z" fill="#FFFFFF"/>
	</g>
</g>
<g>
	<g>
		<path d="M431.229,224.438h-12.023c-4.15,0-7.515,3.364-7.515,7.515c0,4.151,3.365,7.515,7.515,7.515h12.023    c4.15,0,7.515-3.364,7.515-7.515C438.744,227.802,435.379,224.438,431.229,224.438z" fill="#FFFFFF"/>
	</g>
</g>
<g>
	<g>
		<path d="M195.333,136.266h-12.023c-4.15,0-7.515,3.364-7.515,7.515s3.365,7.515,7.515,7.515h12.023    c4.15,0,7.515-3.364,7.515-7.515S199.483,136.266,195.333,136.266z" fill="#FFFFFF"/>
	</g>
</g>
<g>
	<g>
		<path d="M411.755,136.266h-12.023c-4.15,0-7.515,3.364-7.515,7.515s3.365,7.515,7.515,7.515h12.023    c4.15,0,7.515-3.364,7.515-7.515S415.905,136.266,411.755,136.266z" fill="#FFFFFF"/>
	</g>
</g>
<g>
	<g>
		<path d="M231.403,136.266h-12.023c-4.15,0-7.515,3.364-7.515,7.515s3.365,7.515,7.515,7.515h12.023    c4.15,0,7.515-3.364,7.515-7.515S235.553,136.266,231.403,136.266z" fill="#FFFFFF"/>
	</g>
</g>
<g>
	<g>
		<path d="M409.514,274.968c-2.934-2.933-7.692-2.933-10.627,0.001c-2.935,2.936-2.935,7.693,0,10.628    c16.748,16.748,25.972,39.014,25.972,62.7c0,23.685-9.224,45.953-25.972,62.701c-2.736,2.736-2.918,7.255-0.4,10.197    c2.809,3.281,7.971,3.487,11.027,0.432c19.587-19.588,30.373-45.63,30.373-73.33C439.887,320.597,429.1,294.555,409.514,274.968z" fill="#FFFFFF"/>
	</g>
</g>
<g>
	<g>
		<path d="M381.175,303.309c-2.936-2.936-7.693-2.935-10.628-0.001c-2.935,2.935-2.935,7.693,0,10.627    c9.179,9.18,14.234,21.383,14.234,34.362c0,12.98-5.055,25.184-14.233,34.362c-2.736,2.736-2.918,7.255-0.4,10.197    c2.809,3.281,7.971,3.487,11.027,0.432c12.017-12.017,18.635-27.995,18.635-44.99C399.81,331.304,393.192,315.327,381.175,303.309    z" fill="#FFFFFF"/>
	</g>
</g>
<g>
	<g>
		<path d="M358.502,325.982c-2.933-2.936-7.691-2.937-10.626-0.002c-2.935,2.935-2.936,7.692-0.001,10.627    c3.123,3.123,4.842,7.275,4.842,11.691s-1.719,8.568-4.842,11.69c-2.736,2.736-2.918,7.255-0.4,10.197    c2.81,3.281,7.971,3.487,11.027,0.432c5.962-5.962,9.244-13.887,9.244-22.318C367.746,339.869,364.464,331.943,358.502,325.982z" fill="#FFFFFF"/>
	</g>
</g>
<g>
	<g>
		<path d="M87.199,348.297c0-23.686,9.224-45.953,25.972-62.7c2.935-2.936,2.935-7.693,0-10.628c-2.934-2.933-7.692-2.935-10.627,0    c-19.586,19.587-30.373,45.628-30.373,73.329c0,27.7,10.787,53.742,30.373,73.33c3.056,3.055,8.217,2.851,11.027-0.432    c2.519-2.942,2.337-7.461-0.4-10.197C96.422,394.25,87.199,371.983,87.199,348.297z" fill="#FFFFFF"/>
	</g>
</g>
<g>
	<g>
		<path d="M127.277,348.297c0-12.98,5.055-25.183,14.233-34.361c2.936-2.935,2.936-7.692,0.001-10.628    c-2.935-2.934-7.693-2.934-10.627,0c-12.017,12.017-18.635,27.995-18.635,44.989c0,16.994,6.618,32.971,18.634,44.989    c3.056,3.056,8.217,2.852,11.027-0.43c2.518-2.941,2.338-7.461-0.399-10.196C132.331,373.48,127.277,361.277,127.277,348.297z" fill="#FFFFFF"/>
	</g>
</g>
<g>
	<g>
		<path d="M159.338,348.297c0-4.416,1.719-8.568,4.842-11.691c2.936-2.934,2.936-7.693,0.001-10.627    c-2.936-2.934-7.693-2.935-10.628,0.001c-5.961,5.961-9.244,13.887-9.244,22.317c0,8.432,3.283,16.357,9.244,22.318    c3.058,3.055,8.216,2.851,11.027-0.432c2.518-2.941,2.336-7.461-0.4-10.196C161.059,356.866,159.338,352.714,159.338,348.297z" fill="#FFFFFF"/>
	</g>
</g>
<g>
	<g>
		<path d="M328.17,400.449c4.15,0,7.515-3.364,7.515-7.515v-40.747c0-30.663-24.946-55.609-55.609-55.609h-16.532v-4.509    c0-4.151-3.365-7.515-7.515-7.515c-4.15,0-7.515,3.364-7.515,7.515v4.509h-16.532c-30.663,0-55.609,24.946-55.609,55.609v104.203    c0,30.663,24.946,55.609,55.609,55.609h48.094c30.663,0,55.609-24.946,55.609-55.609v-28.723c0-4.151-3.365-7.515-7.515-7.515    c-4.15,0-7.515,3.364-7.515,7.515v28.723c0,22.376-18.204,40.579-40.579,40.579h-48.094c-22.376,0-40.579-18.204-40.579-40.579    v-80.658h129.252v17.201C320.655,397.086,324.02,400.449,328.17,400.449z M248.514,360.704h-57.112v-8.517    c0-22.376,18.204-40.579,40.579-40.579h0.501v16.532c0,10.356,6.723,19.165,16.031,22.31V360.704z M256.029,336.658    c-4.696,0-8.517-3.82-8.517-8.517v-16.532h17.033v16.532C264.546,332.837,260.725,336.658,256.029,336.658z M263.544,360.704    V350.45c9.308-3.144,16.031-11.953,16.031-22.31v-16.532h0.501c22.376,0,40.579,18.204,40.579,40.579v8.517H263.544z" fill="#FFFFFF"/>
	</g>
</g>
<g>
	<g>
		<path d="M336.186,0H175.872c-4.083,0-7.515,3.43-7.515,7.515v96.188c0,4.151,3.365,7.515,7.515,7.515h160.313    c4.15,0,7.515-3.364,7.515-7.515V7.515C343.7,3.43,340.27,0,336.186,0z M312.346,15.029l-56.318,39.422l-56.317-39.422H312.346z     M328.671,96.188H183.387v-74.24l68.332,47.833c2.56,1.79,6.059,1.792,8.619,0l68.332-47.833V96.188z" fill="#FFFFFF"/>
	</g>
</g>
<g>
</g>
<g>
</g>
<g>
</g>
<g>
</g>
<g>
</g>
<g>
</g>
<g>
</g>
<g>
</g>
<g>
</g>
<g>
</g>
<g>
</g>
<g>
</g>
<g>
</g>
<g>
</g>
<g>
</g>
</svg>
