<?xml version="1.0" encoding="iso-8859-1"?>
<!-- Generator: Adobe Illustrator 19.0.0, SVG Export Plug-In . SVG Version: 6.00 Build 0)  -->
<svg version="1.1" id="Capa_1" xmlns="http://www.w3.org/2000/svg" xmlns:xlink="http://www.w3.org/1999/xlink" x="0px" y="0px"
	 viewBox="0 0 484.045 484.045" style="enable-background:new 0 0 484.045 484.045;" xml:space="preserve">
<path style="fill:#FFDA44;" d="M441.879,209.208L426.903,54.496c-0.731-7.629-6.771-13.669-14.4-14.4L257.815,25.12
	c-4.762-0.478-9.487,1.201-12.88,4.576L12.687,261.984c-6.246,6.248-6.246,16.376,0,22.624l169.704,169.704
	c6.247,6.25,16.378,6.252,22.627,0.005c0.002-0.002,0.003-0.003,0.005-0.005L216.335,443l220.936-220.936
	C440.65,218.683,442.341,213.967,441.879,209.208L441.879,209.208z M29.655,267.64l11.312,11.312L29.655,267.64z M52.287,290.264
	l11.312,11.312L52.287,290.264z M74.911,312.896l11.312,11.32L74.911,312.896z M97.535,335.528l11.32,11.312L97.535,335.528z
	 M120.167,358.152l11.312,11.32L120.167,358.152z M142.791,380.784l11.32,11.312L142.791,380.784z M148.447,318.56l16.976-16.976
	L148.447,318.56z M165.423,403.408l11.312,11.312L165.423,403.408z M188.047,426.04l11.312,11.312L188.047,426.04z M278.559,245.008
	c22.24-22.24,12.8-64.16-28.288-69.72c-41.096,5.56-50.52,47.48-28.28,69.72c22.24,22.24,12.8,64.16-28.288,69.728
	c-41.096-5.6-50.528-47.48-28.28-69.728c-22.248,22.248-12.8,64.16,28.28,69.728c41.104-5.6,50.528-47.48,28.288-69.728
	s-12.8-64.16,28.28-69.72C291.415,180.848,300.799,222.768,278.559,245.008z M278.559,188.44l16.968-16.968L278.559,188.44z
	 M374.839,140.32c-12.495,12.499-32.756,12.502-45.255,0.007c-12.499-12.495-12.502-32.756-0.007-45.255
	c12.495-12.499,32.756-12.502,45.255-0.007c0.002,0.002,0.005,0.005,0.007,0.007C387.331,107.568,387.331,127.824,374.839,140.32z"
	/>
<path style="fill:#FFC477;" d="M458.935,94.496c-0.771-7.611-6.789-13.629-14.4-14.4l-15.36-2.4l12.72,131.52
	c0.433,4.768-1.266,9.483-4.64,12.88l-219.6,219.52l12.72,12.72c6.245,6.252,16.376,6.257,22.627,0.013
	c0.004-0.004,0.008-0.008,0.013-0.013l11.28-11.36l204.96-204.88c3.374-3.397,5.073-8.112,4.64-12.88L458.935,94.496z"/>
<g>
	<path style="fill:#231F20;" d="M23.99,273.291l11.318-11.31l11.31,11.318l-11.318,11.31L23.99,273.291z"/>
	<path style="fill:#231F20;" d="M159.77,409.058l11.314-11.314l11.314,11.314l-11.314,11.314L159.77,409.058z"/>
	<path style="fill:#231F20;" d="M182.391,431.733l11.312-11.316l11.316,11.312l-11.312,11.316L182.391,431.733z"/>
	<path style="fill:#231F20;" d="M323.927,89.416c-15.619,15.623-15.616,40.95,0.007,56.569s40.95,15.616,56.569-0.007
		c15.616-15.62,15.616-40.941,0-56.561c-15.406-15.623-40.559-15.799-56.182-0.393C324.188,89.153,324.057,89.284,323.927,89.416z
		 M369.191,134.664c-9.37,9.376-24.566,9.38-33.941,0.011c-9.376-9.37-9.38-24.566-0.011-33.941s24.566-9.38,33.941-0.011
		c4.503,4.501,7.034,10.606,7.035,16.973C376.211,124.059,373.685,130.161,369.191,134.664z"/>
	<path style="fill:#231F20;" d="M289.871,165.816l-11.872,11.88c-7.904-5.577-17.058-9.124-26.656-10.328l-1.072-0.144l-1.064,0.144
		c-20.136,1.77-37.438,15.01-44.408,33.984c-5.917,17.293-1.437,36.446,11.536,49.32c8.645,8.588,11.63,21.357,7.688,32.888
		c-4.827,12.884-16.609,21.861-30.312,23.096c-13.696-1.247-25.469-10.226-30.296-23.104c-3.938-11.532-0.95-24.301,7.696-32.888
		l-11.312-11.312c-12.981,12.869-17.479,32.018-11.584,49.32c1.505,4.434,3.662,8.618,6.4,12.416l-11.824,11.808l11.312,11.312
		l11.88-11.864c7.903,5.573,17.053,9.12,26.648,10.328l1.08,0.144l1.072-0.144c20.133-1.778,37.43-15.02,44.4-33.992
		c5.909-17.293,1.43-36.442-11.536-49.32c-8.646-8.587-11.634-21.356-7.696-32.888c4.835-12.879,16.619-21.852,30.32-23.088
		c13.701,1.236,25.485,10.209,30.32,23.088c3.946,11.53,0.96,24.302-7.688,32.888l11.312,11.304
		c16.601-16.54,18.788-42.666,5.168-61.736l11.8-11.8L289.871,165.816z"/>
	<path style="fill:#231F20;" d="M46.627,295.922l11.314-11.314l11.314,11.314l-11.314,11.314L46.627,295.922z"/>
	<path style="fill:#231F20;" d="M69.254,318.53l11.314-11.314l11.314,11.314l-11.314,11.314L69.254,318.53z"/>
	<path style="fill:#231F20;" d="M91.856,341.178l11.318-11.31l11.31,11.318l-11.318,11.31L91.856,341.178z"/>
	<path style="fill:#231F20;" d="M114.486,363.808l11.314-11.314l11.314,11.314l-11.314,11.314L114.486,363.808z"/>
	<path style="fill:#231F20;" d="M137.137,386.432l11.314-11.314l11.314,11.314l-11.314,11.314L137.137,386.432z"/>
	<path style="fill:#231F20;" d="M474.239,93.744c-0.896-11.615-10.005-20.91-21.6-22.04l-16.176-1.6l-1.592-16.408
		c-1.097-11.444-10.156-20.503-21.6-21.6L258.559,17.16c-7.139-0.7-14.215,1.84-19.28,6.92L7.031,256.32
		c-9.373,9.372-9.375,24.568-0.003,33.941c0.001,0.001,0.002,0.002,0.003,0.003l169.704,169.704
		c9.372,9.373,24.568,9.375,33.941,0.003c0.001-0.001,0.002-0.002,0.003-0.003l5.656-5.656l5.656,5.656
		c9.372,9.369,24.564,9.369,33.936,0l221.088-221.072c4.954-4.953,7.496-11.823,6.96-18.808L474.239,93.744z M188.047,448.656
		L18.343,278.952c-3.126-3.122-3.129-8.188-0.006-11.314c0.002-0.002,0.004-0.004,0.006-0.006l232.272-232.24
		c1.481-1.495,3.495-2.341,5.6-2.352h0.8l154.736,15.056c3.815,0.366,6.834,3.385,7.2,7.2l14.976,154.736
		c0.22,2.371-0.627,4.717-2.312,6.4L199.367,448.656c-3.122,3.126-8.188,3.129-11.314,0.006
		C188.051,448.66,188.049,448.658,188.047,448.656L188.047,448.656z M465.687,227.584L244.615,448.656
		c-3.124,3.123-8.188,3.123-11.312,0L227.647,443l215.272-215.28c5.083-5.063,7.623-12.141,6.92-19.28L438.023,86.352l13.064,1.272
		c3.867,0.377,6.904,3.478,7.2,7.352l9.72,126.336C468.186,223.641,467.339,225.933,465.687,227.584L465.687,227.584z"/>
</g>
<g>
</g>
<g>
</g>
<g>
</g>
<g>
</g>
<g>
</g>
<g>
</g>
<g>
</g>
<g>
</g>
<g>
</g>
<g>
</g>
<g>
</g>
<g>
</g>
<g>
</g>
<g>
</g>
<g>
</g>
</svg>
