<?xml version="1.0" encoding="iso-8859-1"?>
<!-- Generator: Adobe Illustrator 19.0.0, SVG Export Plug-In . SVG Version: 6.00 Build 0)  -->
<svg version="1.1" id="Capa_1" xmlns="http://www.w3.org/2000/svg" xmlns:xlink="http://www.w3.org/1999/xlink" x="0px" y="0px"
	 viewBox="0 0 512 512" style="enable-background:new 0 0 512 512;" xml:space="preserve">
<rect x="181" y="346" style="fill:#913F02;" width="30" height="166"/>
<rect x="301" y="346" style="fill:#6F2E01;" width="30" height="166"/>
<rect x="241" style="fill:#913F02;" width="30" height="346"/>
<rect x="256" style="fill:#6F2E01;" width="15" height="346"/>
<path style="fill:#FF3980;" d="M512,166c0,25.499-32.1,45-75,45c-25.201,0-47.5-6.901-61-17.701l-115.499-81L256,115.3l-120,77.999
	C122.5,204.099,100.201,211,75,211c-42.9,0-75-19.501-75-45c0-52.5,55-97.2,136-119.401C171.7,36.7,212.5,31,256,31
	s84.3,5.7,120,15.599C457,68.8,512,113.5,512,166z"/>
<path style="fill:#F30051;" d="M512,166c0,25.499-32.1,45-75,45c-25.201,0-47.5-6.901-61-17.701l-115.499-81L256,115.3V31
	c43.5,0,84.3,5.7,120,15.599C457,68.8,512,113.5,512,166z"/>
<path style="fill:#FFD400;" d="M376,151v42.299C362.5,204.099,341.201,211,316,211s-46.5-6.601-60-17.401
	C242.5,204.399,221.201,211,196,211s-46.5-6.901-60-17.701V151c0-66.301,53.699-120,120-120c32.999,0,62.999,13.5,84.901,35.099
	C362.5,87.999,376,117.999,376,151z"/>
<path style="fill:#FF9F00;" d="M376,151v42.299C362.5,204.099,341.201,211,316,211s-46.5-6.601-60-17.401V31
	c32.999,0,62.999,13.5,84.901,35.099C362.5,87.999,376,117.999,376,151z"/>
<polygon style="fill:#6F2E01;" points="511.707,258.944 482.293,253.056 454.972,391 361,391 361,512 391,512 391,421 452,421 
	452,512 482,512 481.707,408.944 "/>
<polygon style="fill:#913F02;" points="57.296,391 29.707,253.056 0.293,258.944 30,406 30,512 60,512 59.756,421 121,421 121,512 
	151,512 151,391 "/>
<rect x="151" y="331" style="fill:#FFD400;" width="210" height="30"/>
<rect x="256" y="331" style="fill:#FF9F00;" width="105" height="30"/>
<g>
</g>
<g>
</g>
<g>
</g>
<g>
</g>
<g>
</g>
<g>
</g>
<g>
</g>
<g>
</g>
<g>
</g>
<g>
</g>
<g>
</g>
<g>
</g>
<g>
</g>
<g>
</g>
<g>
</g>
</svg>
