<?xml version="1.0" encoding="iso-8859-1"?>
<!-- Generator: Adobe Illustrator 19.0.0, SVG Export Plug-In . SVG Version: 6.00 Build 0)  -->
<svg version="1.1" id="Layer_1" xmlns="http://www.w3.org/2000/svg" xmlns:xlink="http://www.w3.org/1999/xlink" x="0px" y="0px"
	 viewBox="0 0 512 512" style="enable-background:new 0 0 512 512;" xml:space="preserve">
<path style="fill:#40596B;" d="M393.6,359.467v-208C393.6,76.8,331.733,14.933,256,14.933s-137.6,60.8-137.6,136.533v209.067h275.2
	V359.467z"/>
<path style="fill:#CDD6E0;" d="M404.267,176h-22.4v-27.733c0-69.333-56.533-125.867-126.933-125.867S129.067,77.867,129.067,147.2
	v27.733h-22.4V147.2C107.733,66.133,173.867,0,256,0s148.267,66.133,148.267,147.2V176z"/>
<polygon style="fill:#F8B64C;" points="256,512 256,244.267 305.067,283.733 324.267,310.4 "/>
<path style="fill:#FF7058;" d="M492.8,429.867c-5.333-53.333-51.2-71.467-51.2-71.467c-71.467-32-116.267-48-116.267-48L256,512
	h251.733L492.8,429.867z"/>
<path style="fill:#F2F2F2;" d="M324.267,310.4l57.6,76.8l-46.933-6.4L256,512C278.4,362.667,324.267,310.4,324.267,310.4z"/>
<polygon style="fill:#F8B64C;" points="256,512 256,244.267 206.933,283.733 187.733,310.4 "/>
<path style="fill:#FF7058;" d="M187.733,310.4c0,0-44.8,16-116.267,48c0,0-45.867,18.133-51.2,71.467L4.267,512H256L187.733,310.4z"
	/>
<path style="fill:#F2F2F2;" d="M187.733,310.4l-57.6,76.8l46.933-6.4L256,512C233.6,362.667,187.733,310.4,187.733,310.4z"/>
<path style="fill:#FFD15C;" d="M256,36.267L256,36.267c-64,0-116.267,51.2-116.267,115.2v58.667
	c0,62.933,52.267,115.2,116.267,115.2l0,0c64,0,116.267-51.2,116.267-115.2v-58.667C372.267,87.467,320,36.267,256,36.267z"/>
<path style="fill:#CDD6E0;" d="M352,283.733h-76.8V262.4H352c17.067,0,29.867-13.867,29.867-29.867v-58.667h22.4v58.667
	C404.267,260.267,380.8,283.733,352,283.733z"/>
<g>
	<path style="fill:#40596B;" d="M284.8,293.333h-30.933c-8.533,0-16-7.467-16-16v-10.667c0-8.533,7.467-16,16-16H284.8
		c8.533,0,16,7.467,16,16v10.667C300.8,286.933,293.333,293.333,284.8,293.333z"/>
	<path style="fill:#40596B;" d="M139.733,138.667c103.467,8.533,160-4.267,220.8-54.4c-14.933,12.8-13.867-30.933-32-37.333
		c-26.667,1.067-26.667-7.467-50.133-16c-26.667,0-42.667,9.6-70.4,4.267c-23.467,14.933-26.667,20.267-46.933,39.467
		C147.2,88.533,139.733,138.667,139.733,138.667z"/>
</g>
<g>
	<path style="fill:#FF7058;" d="M139.733,220.8H131.2c-22.4,0-40.533-18.133-40.533-40.533v-2.133
		c0-22.4,18.133-40.533,40.533-40.533h8.533V220.8z"/>
	<path style="fill:#FF7058;" d="M372.267,138.667h8.533c22.4,0,40.533,18.133,40.533,40.533v2.133
		c0,22.4-18.133,40.533-40.533,40.533h-8.533V138.667z"/>
</g>
<g>
	<polygon style="fill:#F1543F;" points="256,512 344.533,398.933 381.867,388.267 334.933,381.867 	"/>
	<polygon style="fill:#F1543F;" points="256,512 167.467,398.933 130.133,388.267 177.067,381.867 	"/>
</g>
<g>
</g>
<g>
</g>
<g>
</g>
<g>
</g>
<g>
</g>
<g>
</g>
<g>
</g>
<g>
</g>
<g>
</g>
<g>
</g>
<g>
</g>
<g>
</g>
<g>
</g>
<g>
</g>
<g>
</g>
</svg>
